<svg xmlns="http://www.w3.org/2000/svg" xmlns:xlink="http://www.w3.org/1999/xlink" width="1080" zoomAndPan="magnify" viewBox="0 0 810 809.999993" height="1080" preserveAspectRatio="xMidYMid meet" version="1.2"><defs><clipPath id="db4c82c0d7"><path d="M 301 168.996094 L 728.777344 168.996094 L 728.777344 711.398438 L 301 711.398438 Z M 301 168.996094 "/></clipPath><clipPath id="5f1b4df741"><path d="M 81 155 L 533 155 L 533 721.789062 L 81 721.789062 Z M 81 155 "/></clipPath></defs><g id="5f1bfe7334"><rect x="0" width="810" y="0" height="809.999993" style="fill:#ffffff;fill-opacity:1;stroke:none;"/><rect x="0" width="810" y="0" height="809.999993" style="fill:#ffffff;fill-opacity:1;stroke:none;"/><path style=" stroke:none;fill-rule:nonzero;fill:#99bc85;fill-opacity:1;" d="M 353.691406 232.46875 L 261.367188 232.46875 L 261.367188 140.144531 L 324.839844 140.144531 L 324.839844 151.683594 L 272.90625 151.683594 L 272.90625 220.925781 L 342.148438 220.925781 L 342.148438 186.304688 L 353.691406 186.304688 L 353.691406 232.46875 "/><path style=" stroke:none;fill-rule:nonzero;fill:#99bc85;fill-opacity:1;" d="M 307.527344 206.007812 L 280.367188 178.84375 L 288.527344 170.6875 L 307.527344 189.6875 L 355.378906 141.835938 L 363.539062 149.992188 L 307.527344 206.007812 "/><path style=" stroke:none;fill-rule:nonzero;fill:#99bc85;fill-opacity:1;" d="M 353.691406 347.875 L 261.367188 347.875 L 261.367188 255.550781 L 324.839844 255.550781 L 324.839844 267.089844 L 272.90625 267.089844 L 272.90625 336.332031 L 342.148438 336.332031 L 342.148438 301.710938 L 353.691406 301.710938 L 353.691406 347.875 "/><path style=" stroke:none;fill-rule:nonzero;fill:#99bc85;fill-opacity:1;" d="M 307.527344 321.410156 L 280.367188 294.25 L 288.527344 286.089844 L 307.527344 305.09375 L 355.378906 257.238281 L 363.539062 265.398438 L 307.527344 321.410156 "/><path style=" stroke:none;fill-rule:nonzero;fill:#99bc85;fill-opacity:1;" d="M 353.691406 463.277344 L 261.367188 463.277344 L 261.367188 370.953125 L 324.839844 370.953125 L 324.839844 382.496094 L 272.90625 382.496094 L 272.90625 451.738281 L 342.148438 451.738281 L 342.148438 417.117188 L 353.691406 417.117188 L 353.691406 463.277344 "/><path style=" stroke:none;fill-rule:nonzero;fill:#99bc85;fill-opacity:1;" d="M 307.527344 436.816406 L 280.367188 409.65625 L 288.527344 401.496094 L 307.527344 420.496094 L 355.378906 372.644531 L 363.539062 380.804688 L 307.527344 436.816406 "/><path style=" stroke:none;fill-rule:nonzero;fill:#99bc85;fill-opacity:1;" d="M 538.179688 564.4375 L 505.046875 524.675781 L 513.925781 517.285156 L 538.472656 546.746094 L 580.195312 499.839844 L 588.804688 507.503906 L 538.179688 564.4375 "/><path style=" stroke:none;fill-rule:nonzero;fill:#99bc85;fill-opacity:1;" d="M 244.054688 619.074219 L 647.972656 619.074219 L 647.972656 99.753906 L 244.054688 99.753906 Z M 659.511719 630.617188 L 232.515625 630.617188 L 232.515625 88.210938 L 659.511719 88.210938 L 659.511719 630.617188 "/><path style=" stroke:none;fill-rule:nonzero;fill:#99bc85;fill-opacity:1;" d="M 544.109375 469.046875 C 512.28125 469.046875 486.40625 494.925781 486.40625 526.75 C 486.40625 558.554688 512.28125 584.453125 544.109375 584.453125 C 575.914062 584.453125 601.8125 558.554688 601.8125 526.75 C 601.8125 494.925781 575.914062 469.046875 544.109375 469.046875 Z M 544.109375 595.996094 C 505.925781 595.996094 474.863281 564.933594 474.863281 526.75 C 474.863281 488.570312 505.925781 457.507812 544.109375 457.507812 C 582.292969 457.507812 613.351562 488.570312 613.351562 526.75 C 613.351562 564.933594 582.292969 595.996094 544.109375 595.996094 "/><path style=" stroke:none;fill-rule:nonzero;fill:#99bc85;fill-opacity:1;" d="M 607.582031 163.226562 L 376.769531 163.226562 L 376.769531 151.683594 L 607.582031 151.683594 L 607.582031 163.226562 "/><path style=" stroke:none;fill-rule:nonzero;fill:#99bc85;fill-opacity:1;" d="M 619.121094 192.078125 L 376.769531 192.078125 L 376.769531 180.535156 L 619.121094 180.535156 L 619.121094 192.078125 "/><path style=" stroke:none;fill-rule:nonzero;fill:#99bc85;fill-opacity:1;" d="M 532.566406 220.925781 L 376.769531 220.925781 L 376.769531 209.386719 L 532.566406 209.386719 L 532.566406 220.925781 "/><path style=" stroke:none;fill-rule:nonzero;fill:#99bc85;fill-opacity:1;" d="M 619.121094 278.628906 L 376.769531 278.628906 L 376.769531 267.089844 L 619.121094 267.089844 L 619.121094 278.628906 "/><path style=" stroke:none;fill-rule:nonzero;fill:#99bc85;fill-opacity:1;" d="M 607.582031 307.480469 L 376.769531 307.480469 L 376.769531 295.941406 L 607.582031 295.941406 L 607.582031 307.480469 "/><path style=" stroke:none;fill-rule:nonzero;fill:#99bc85;fill-opacity:1;" d="M 469.09375 336.332031 L 376.769531 336.332031 L 376.769531 324.792969 L 469.09375 324.792969 L 469.09375 336.332031 "/><path style=" stroke:none;fill-rule:nonzero;fill:#99bc85;fill-opacity:1;" d="M 619.121094 394.035156 L 376.769531 394.035156 L 376.769531 382.496094 L 619.121094 382.496094 L 619.121094 394.035156 "/><path style=" stroke:none;fill-rule:nonzero;fill:#99bc85;fill-opacity:1;" d="M 619.121094 422.886719 L 376.769531 422.886719 L 376.769531 411.347656 L 619.121094 411.347656 L 619.121094 422.886719 "/><path style=" stroke:none;fill-rule:nonzero;fill:#99bc85;fill-opacity:1;" d="M 480.636719 451.738281 L 376.769531 451.738281 L 376.769531 440.199219 L 480.636719 440.199219 L 480.636719 451.738281 "/><g clip-rule="nonzero" clip-path="url(#db4c82c0d7)"><path style=" stroke:none;fill-rule:nonzero;fill:#99bc85;fill-opacity:1;" d="M 728.757812 711.398438 L 301.757812 711.398438 L 301.757812 699.859375 L 717.214844 699.859375 L 717.214844 180.535156 L 653.742188 180.535156 L 653.742188 168.996094 L 728.757812 168.996094 L 728.757812 711.398438 "/><path style=" stroke:none;fill-rule:nonzero;fill:#99bc85;fill-opacity:1;" d="M 728.757812 711.398438 L 301.757812 711.398438 L 301.757812 694.089844 L 313.296875 694.089844 L 313.296875 699.859375 L 717.214844 699.859375 L 717.214844 180.535156 L 653.742188 180.535156 L 653.742188 168.996094 L 728.757812 168.996094 L 728.757812 711.398438 "/></g><path style=" stroke:none;fill-rule:nonzero;fill:#99bc85;fill-opacity:1;" d="M 613.351562 676.777344 C 582.472656 676.777344 555.0625 656.042969 546.699219 626.378906 L 557.8125 623.246094 C 564.777344 647.972656 587.609375 665.238281 613.351562 665.238281 C 645.15625 665.238281 671.054688 639.339844 671.054688 607.535156 C 671.054688 590.269531 663.414062 574.039062 650.070312 563.019531 L 657.441406 554.136719 C 673.421875 567.347656 682.59375 586.796875 682.59375 607.535156 C 682.59375 645.71875 651.535156 676.777344 613.351562 676.777344 "/><path style=" stroke:none;fill-rule:nonzero;fill:#99bc85;fill-opacity:1;" d="M 676.824219 244.007812 L 653.742188 244.007812 L 653.742188 232.46875 L 676.824219 232.46875 L 676.824219 244.007812 "/><path style=" stroke:none;fill-rule:nonzero;fill:#99bc85;fill-opacity:1;" d="M 688.363281 272.859375 L 653.742188 272.859375 L 653.742188 261.320312 L 688.363281 261.320312 L 688.363281 272.859375 "/><path style=" stroke:none;fill-rule:nonzero;fill:#99bc85;fill-opacity:1;" d="M 688.363281 359.414062 L 653.742188 359.414062 L 653.742188 347.875 L 688.363281 347.875 L 688.363281 359.414062 "/><path style=" stroke:none;fill-rule:nonzero;fill:#99bc85;fill-opacity:1;" d="M 676.824219 388.265625 L 653.742188 388.265625 L 653.742188 376.722656 L 676.824219 376.722656 L 676.824219 388.265625 "/><path style=" stroke:none;fill-rule:nonzero;fill:#99bc85;fill-opacity:1;" d="M 688.363281 474.820312 L 653.742188 474.820312 L 653.742188 463.277344 L 688.363281 463.277344 L 688.363281 474.820312 "/><path style=" stroke:none;fill-rule:nonzero;fill:#99bc85;fill-opacity:1;" d="M 688.363281 503.671875 L 653.742188 503.671875 L 653.742188 492.128906 L 688.363281 492.128906 L 688.363281 503.671875 "/><path style=" stroke:none;fill-rule:nonzero;fill:#99bc85;fill-opacity:1;" d="M 152.363281 333.742188 L 124.277344 245.789062 L 184.75 226.472656 L 188.269531 237.472656 L 138.792969 253.273438 L 159.84375 319.226562 L 225.820312 298.171875 L 215.292969 265.171875 L 226.269531 261.679688 L 240.3125 305.65625 L 152.363281 333.742188 "/><path style=" stroke:none;fill-rule:nonzero;fill:#99bc85;fill-opacity:1;" d="M 188.289062 294.476562 L 154.164062 276.871094 L 159.4375 266.617188 L 183.332031 278.945312 L 214.347656 218.785156 L 224.601562 224.082031 L 188.289062 294.476562 "/><path style=" stroke:none;fill-rule:nonzero;fill:#99bc85;fill-opacity:1;" d="M 187.480469 443.667969 L 159.394531 355.71875 L 219.871094 336.398438 L 223.363281 347.398438 L 173.886719 363.199219 L 194.960938 429.175781 L 236.527344 415.898438 L 240.042969 426.875 L 187.480469 443.667969 "/><path style=" stroke:none;fill-rule:nonzero;fill:#99bc85;fill-opacity:1;" d="M 223.40625 404.425781 L 189.261719 386.800781 L 194.558594 376.542969 L 218.449219 388.875 L 233.144531 360.359375 L 243.402344 365.65625 L 223.40625 404.425781 "/><path style=" stroke:none;fill-rule:nonzero;fill:#99bc85;fill-opacity:1;" d="M 222.597656 553.597656 L 194.511719 465.644531 L 236.527344 452.234375 L 240.042969 463.234375 L 209.003906 473.128906 L 230.078125 539.101562 L 236.527344 537.050781 L 240.019531 548.027344 L 222.597656 553.597656 "/><g clip-rule="nonzero" clip-path="url(#5f1b4df741)"><path style=" stroke:none;fill-rule:nonzero;fill:#99bc85;fill-opacity:1;" d="M 246.015625 721.789062 L 81 205.105469 L 236.527344 155.425781 L 240.042969 166.425781 L 95.492188 212.566406 L 253.5 707.296875 L 528.847656 619.347656 L 532.363281 630.324219 L 246.015625 721.789062 "/></g></g></svg>