<svg xmlns="http://www.w3.org/2000/svg" xmlns:xlink="http://www.w3.org/1999/xlink" width="1080" zoomAndPan="magnify" viewBox="0 0 810 809.999993" height="1080" preserveAspectRatio="xMidYMid meet" version="1.2"><defs><clipPath id="d8b27add90"><path d="M 86 86 L 729 86 L 729 721.5 L 86 721.5 Z M 86 86 "/></clipPath></defs><g id="367a822257"><rect x="0" width="810" y="0" height="809.999993" style="fill:#ffffff;fill-opacity:1;stroke:none;"/><rect x="0" width="810" y="0" height="809.999993" style="fill:#ffffff;fill-opacity:1;stroke:none;"/><g clip-rule="nonzero" clip-path="url(#d8b27add90)"><path style=" stroke:none;fill-rule:nonzero;fill:#99bc85;fill-opacity:1;" d="M 719.628906 171.230469 C 709.175781 171.230469 698.664062 171.472656 688.25 171.9375 L 688.25 128.503906 C 688.25 123.476562 684.171875 119.398438 679.144531 119.398438 C 635.757812 119.398438 582.015625 130.816406 535.386719 149.941406 C 498.648438 165.007812 450.5 191.320312 420.84375 233.195312 C 391.183594 191.320312 343.035156 165.007812 306.296875 149.941406 C 259.671875 130.816406 205.929688 119.398438 162.539062 119.398438 C 162.269531 119.398438 162.003906 119.417969 161.738281 119.441406 L 152.742188 103.855469 C 142.898438 86.8125 121.023438 80.949219 103.980469 90.789062 C 86.933594 100.632812 81.070312 122.507812 90.914062 139.554688 L 113.21875 178.191406 C 113.054688 178.878906 112.953125 179.597656 112.953125 180.335938 L 112.953125 637.667969 C 112.953125 642.695312 117.03125 646.773438 122.058594 646.773438 C 231.335938 646.773438 330.347656 671.492188 416.351562 720.242188 C 416.519531 720.335938 416.691406 720.40625 416.859375 720.488281 C 417.035156 720.574219 417.203125 720.667969 417.382812 720.742188 C 417.585938 720.824219 417.796875 720.882812 418.003906 720.953125 C 418.167969 721.007812 418.332031 721.070312 418.5 721.117188 C 418.738281 721.179688 418.976562 721.21875 419.214844 721.261719 C 419.363281 721.289062 419.507812 721.328125 419.660156 721.347656 C 420.050781 721.398438 420.445312 721.425781 420.839844 721.425781 C 421.238281 721.425781 421.632812 721.398438 422.023438 721.347656 C 422.171875 721.328125 422.316406 721.289062 422.464844 721.261719 C 422.703125 721.21875 422.945312 721.179688 423.183594 721.117188 C 423.351562 721.070312 423.511719 721.007812 423.675781 720.953125 C 423.886719 720.882812 424.097656 720.824219 424.300781 720.742188 C 424.480469 720.664062 424.65625 720.570312 424.832031 720.484375 C 425 720.402344 425.167969 720.332031 425.332031 720.242188 C 511.335938 671.488281 610.347656 646.769531 719.625 646.769531 C 724.652344 646.769531 728.730469 642.695312 728.730469 637.664062 L 728.730469 180.335938 C 728.734375 175.308594 724.65625 171.230469 719.628906 171.230469 Z M 670.039062 137.789062 L 670.039062 581.84375 C 628.390625 583.292969 578.808594 594.417969 535.390625 612.226562 C 502.207031 625.832031 459.714844 648.621094 429.949219 683.761719 L 429.949219 252.550781 C 475.15625 177.320312 595.761719 140.625 670.039062 137.789062 Z M 411.738281 252.554688 L 411.738281 683.761719 C 381.96875 648.621094 339.480469 625.835938 306.300781 612.226562 C 262.882812 594.417969 213.300781 583.292969 171.648438 581.84375 L 171.648438 279.390625 L 194.886719 319.644531 C 195.566406 320.816406 196.492188 321.820312 197.609375 322.589844 L 250.808594 359.238281 C 252.359375 360.308594 254.164062 360.84375 255.972656 360.84375 C 257.589844 360.84375 259.210938 360.414062 260.65625 359.546875 C 263.714844 357.714844 265.421875 354.261719 265.019531 350.714844 L 257.878906 287.476562 C 257.738281 286.234375 257.34375 285.03125 256.714844 283.949219 L 172.351562 137.824219 C 246.6875 140.859375 366.671875 177.554688 411.738281 252.554688 Z M 121.878906 156.761719 L 152.164062 139.277344 L 236.171875 284.785156 L 205.886719 302.273438 Z M 244.683594 332.902344 L 219.40625 315.492188 L 241.289062 302.859375 Z M 113.085938 106.5625 C 121.433594 101.742188 132.148438 104.613281 136.96875 112.960938 L 143.058594 123.503906 L 112.773438 140.992188 L 106.683594 130.449219 C 101.863281 122.097656 104.734375 111.382812 113.085938 106.5625 Z M 131.164062 628.617188 L 131.164062 209.273438 L 153.4375 247.847656 L 153.4375 590.789062 C 153.4375 595.816406 157.511719 599.894531 162.542969 599.894531 C 225.800781 599.894531 330.871094 627.25 388.5625 685.390625 C 351.773438 668.074219 312.609375 654.566406 271.652344 645.125 C 226.773438 634.78125 179.554688 629.234375 131.164062 628.617188 Z M 710.523438 628.617188 C 662.132812 629.234375 614.914062 634.78125 570.035156 645.125 C 529.074219 654.5625 489.914062 668.070312 453.121094 685.390625 C 510.816406 627.25 615.886719 599.894531 679.144531 599.894531 C 684.171875 599.894531 688.25 595.816406 688.25 590.789062 L 688.25 190.167969 C 695.636719 189.828125 703.082031 189.601562 710.523438 189.503906 Z M 389.019531 595.945312 C 387.214844 598.078125 384.644531 599.175781 382.058594 599.175781 C 379.984375 599.175781 377.898438 598.46875 376.1875 597.023438 C 326.257812 554.832031 252.503906 532.414062 200.132812 525.503906 C 195.144531 524.847656 191.640625 520.273438 192.296875 515.285156 C 192.953125 510.300781 197.527344 506.785156 202.515625 507.453125 C 273.664062 516.839844 342.984375 545.125 387.941406 583.117188 C 391.78125 586.359375 392.261719 592.105469 389.019531 595.945312 Z M 389.019531 535.203125 C 387.214844 537.335938 384.644531 538.433594 382.058594 538.433594 C 379.984375 538.433594 377.898438 537.726562 376.1875 536.28125 C 326.257812 494.089844 252.503906 471.671875 200.132812 464.761719 C 195.144531 464.101562 191.640625 459.53125 192.296875 454.542969 C 192.953125 449.558594 197.527344 446.050781 202.515625 446.707031 C 273.667969 456.097656 342.984375 484.386719 387.941406 522.371094 C 391.78125 525.617188 392.261719 531.363281 389.019531 535.203125 Z M 376.1875 293.308594 C 345.980469 267.78125 302.695312 246.335938 254.304688 232.921875 C 249.460938 231.578125 246.621094 226.5625 247.964844 221.714844 C 249.308594 216.871094 254.324219 214.035156 259.171875 215.375 C 295.160156 225.351562 346.707031 244.554688 387.941406 279.398438 C 391.78125 282.644531 392.265625 288.386719 389.019531 292.230469 C 387.21875 294.359375 384.648438 295.457031 382.058594 295.457031 C 379.980469 295.457031 377.894531 294.75 376.1875 293.308594 Z M 389.019531 474.457031 C 387.214844 476.589844 384.644531 477.6875 382.058594 477.6875 C 379.984375 477.6875 377.898438 476.980469 376.1875 475.535156 C 326.257812 433.347656 252.503906 410.929688 200.132812 404.015625 C 195.144531 403.359375 191.640625 398.785156 192.296875 393.800781 C 192.953125 388.816406 197.527344 385.300781 202.515625 385.964844 C 273.667969 395.355469 342.984375 423.640625 387.941406 461.628906 C 391.78125 464.875 392.261719 470.617188 389.019531 474.457031 Z M 389.019531 352.972656 C 387.214844 355.101562 384.644531 356.199219 382.058594 356.199219 C 379.984375 356.199219 377.898438 355.492188 376.1875 354.050781 C 352.722656 334.222656 321.441406 316.828125 285.726562 303.742188 C 281.003906 302.015625 278.578125 296.785156 280.308594 292.0625 C 282.039062 287.339844 287.269531 284.917969 291.988281 286.644531 C 329.6875 300.453125 362.867188 318.953125 387.941406 340.140625 C 391.78125 343.386719 392.261719 349.132812 389.019531 352.972656 Z M 389.019531 413.714844 C 387.214844 415.847656 384.644531 416.945312 382.058594 416.945312 C 379.984375 416.945312 377.898438 416.238281 376.1875 414.792969 C 354.015625 396.058594 325.933594 380.023438 292.726562 367.128906 C 288.039062 365.308594 285.714844 360.03125 287.535156 355.34375 C 289.355469 350.65625 294.628906 348.332031 299.316406 350.152344 C 334.410156 363.777344 364.226562 380.84375 387.941406 400.882812 C 391.78125 404.132812 392.261719 409.875 389.019531 413.714844 Z M 452.671875 352.972656 C 449.425781 349.128906 449.90625 343.386719 453.75 340.140625 C 498.703125 302.152344 568.023438 273.867188 639.171875 264.476562 C 644.167969 263.816406 648.734375 267.328125 649.390625 272.3125 C 650.050781 277.296875 646.539062 281.871094 641.554688 282.53125 C 589.183594 289.441406 515.429688 311.859375 465.503906 354.050781 C 463.792969 355.492188 461.707031 356.199219 459.628906 356.199219 C 457.042969 356.199219 454.472656 355.105469 452.671875 352.972656 Z M 452.671875 292.230469 C 449.425781 288.386719 449.90625 282.644531 453.75 279.398438 C 498.703125 241.410156 568.019531 213.125 639.171875 203.734375 C 644.167969 203.078125 648.734375 206.582031 649.390625 211.566406 C 650.050781 216.554688 646.539062 221.128906 641.554688 221.785156 C 589.183594 228.699219 515.429688 251.117188 465.503906 293.308594 C 463.792969 294.75 461.707031 295.457031 459.628906 295.457031 C 457.042969 295.457031 454.472656 294.359375 452.671875 292.230469 Z M 452.671875 413.714844 C 449.425781 409.875 449.90625 404.132812 453.75 400.882812 C 498.703125 362.894531 568.019531 334.609375 639.171875 325.21875 C 644.167969 324.558594 648.734375 328.070312 649.390625 333.054688 C 650.050781 338.039062 646.539062 342.613281 641.554688 343.273438 C 589.183594 350.183594 515.429688 372.601562 465.503906 414.792969 C 463.792969 416.234375 461.707031 416.941406 459.628906 416.941406 C 457.042969 416.945312 454.472656 415.847656 452.671875 413.714844 Z M 452.671875 595.945312 C 449.425781 592.105469 449.90625 586.359375 453.75 583.113281 C 498.703125 545.125 568.023438 516.839844 639.171875 507.449219 C 644.167969 506.789062 648.734375 510.300781 649.390625 515.285156 C 650.050781 520.269531 646.539062 524.84375 641.554688 525.5 C 589.183594 532.414062 515.429688 554.832031 465.503906 597.019531 C 463.792969 598.464844 461.707031 599.171875 459.628906 599.171875 C 457.042969 599.175781 454.472656 598.078125 452.671875 595.945312 Z M 452.671875 535.203125 C 449.425781 531.363281 449.90625 525.617188 453.75 522.371094 C 498.703125 484.382812 568.019531 456.097656 639.171875 446.707031 C 644.167969 446.050781 648.734375 449.554688 649.390625 454.542969 C 650.050781 459.527344 646.539062 464.101562 641.554688 464.757812 C 589.183594 471.671875 515.429688 494.089844 465.503906 536.277344 C 463.792969 537.722656 461.707031 538.429688 459.628906 538.429688 C 457.042969 538.433594 454.472656 537.335938 452.671875 535.203125 Z M 452.671875 474.457031 C 449.425781 470.617188 449.90625 464.875 453.75 461.625 C 498.703125 423.636719 568.019531 395.351562 639.171875 385.960938 C 644.167969 385.304688 648.734375 388.8125 649.390625 393.796875 C 650.050781 398.78125 646.539062 403.355469 641.554688 404.015625 C 589.183594 410.925781 515.429688 433.34375 465.503906 475.535156 C 463.792969 476.976562 461.707031 477.683594 459.628906 477.683594 C 457.042969 477.6875 454.472656 476.589844 452.671875 474.457031 Z M 452.671875 474.457031 "/></g></g></svg>