<svg xmlns="http://www.w3.org/2000/svg" xmlns:xlink="http://www.w3.org/1999/xlink" width="1080" zoomAndPan="magnify" viewBox="0 0 810 809.999993" height="1080" preserveAspectRatio="xMidYMid meet" version="1.2"><defs><clipPath id="d49529cc21"><path d="M 101 134.792969 L 705 134.792969 L 705 541 L 101 541 Z M 101 134.792969 "/></clipPath><clipPath id="ab3c6e88ab"><path d="M 438 450 L 552 450 L 552 675.542969 L 438 675.542969 Z M 438 450 "/></clipPath><clipPath id="a308a083c2"><path d="M 596 382 L 709 382 L 709 675.542969 L 596 675.542969 Z M 596 382 "/></clipPath><clipPath id="6f93781c64"><path d="M 281 517 L 394 517 L 394 675.542969 L 281 675.542969 Z M 281 517 "/></clipPath><clipPath id="5208c7216e"><path d="M 123 562 L 237 562 L 237 675.542969 L 123 675.542969 Z M 123 562 "/></clipPath></defs><g id="14d8c5882a"><rect x="0" width="810" y="0" height="809.999993" style="fill:#ffffff;fill-opacity:1;stroke:none;"/><rect x="0" width="810" y="0" height="809.999993" style="fill:#ffffff;fill-opacity:1;stroke:none;"/><g clip-rule="nonzero" clip-path="url(#d49529cc21)"><path style=" stroke:none;fill-rule:nonzero;fill:#99bc85;fill-opacity:1;" d="M 551.535156 292.414062 L 472.285156 292.414062 L 390.484375 405 L 299.097656 405 L 224.066406 517.585938 L 101.015625 517.585938 L 101.015625 540.101562 L 236.117188 540.101562 L 311.144531 427.515625 L 401.917969 427.515625 L 483.804688 314.929688 L 562.617188 314.929688 L 670.628906 174.550781 L 704.402344 200.585938 L 686.988281 134.792969 L 618.910156 134.792969 L 652.773438 160.828125 L 551.535156 292.414062 "/></g><g clip-rule="nonzero" clip-path="url(#ab3c6e88ab)"><path style=" stroke:none;fill-rule:nonzero;fill:#99bc85;fill-opacity:1;" d="M 461.289062 472.550781 L 528.839844 472.550781 L 528.839844 652.6875 L 461.289062 652.6875 Z M 438.773438 450.035156 L 438.773438 675.203125 L 551.359375 675.203125 L 551.359375 450.035156 L 438.773438 450.035156 "/></g><g clip-rule="nonzero" clip-path="url(#a308a083c2)"><path style=" stroke:none;fill-rule:nonzero;fill:#99bc85;fill-opacity:1;" d="M 618.910156 405 L 686.460938 405 L 686.460938 652.6875 L 618.910156 652.6875 Z M 596.390625 382.480469 L 596.390625 675.203125 L 708.976562 675.203125 L 708.976562 382.480469 L 596.390625 382.480469 "/></g><g clip-rule="nonzero" clip-path="url(#6f93781c64)"><path style=" stroke:none;fill-rule:nonzero;fill:#99bc85;fill-opacity:1;" d="M 303.667969 540.101562 L 371.222656 540.101562 L 371.222656 652.6875 L 303.667969 652.6875 Z M 281.152344 517.585938 L 281.152344 675.203125 L 393.738281 675.203125 L 393.738281 517.585938 L 281.152344 517.585938 "/></g><g clip-rule="nonzero" clip-path="url(#5208c7216e)"><path style=" stroke:none;fill-rule:nonzero;fill:#99bc85;fill-opacity:1;" d="M 146.050781 585.136719 L 213.601562 585.136719 L 213.601562 652.6875 L 146.050781 652.6875 Z M 123.53125 562.617188 L 123.53125 675.203125 L 236.117188 675.203125 L 236.117188 562.617188 L 123.53125 562.617188 "/></g></g></svg>